0
SECTION
2
HEADER
9
$ACADVER
1
AC1006
9
$INSBASE
10
0.0
20
0.0
30
0.0
9
$EXTMIN
10
0.0
20
0.0
9
$EXTMAX
10
0.0
20
0.0
0
ENDSEC
0
SECTION
2
TABLES
0
TABLE
2
LTYPE
70
1
0
LTYPE
2
CONTINUOUS
70
64
3
Solid line
72
65
73
0
40
0.0
0
ENDTAB
0
TABLE
2
LAYER
70
1
0
LAYER
2
PYDXF
70
64
62
7
6
continuous
0
ENDTAB
0
TABLE
2
STYLE
70
1
0
STYLE
2
STANDARD
70
0
40
0
41
40
50
50
71
0
42
1
3
ARIAL.TTF
4

0
ENDTAB
0
TABLE
2
VIEW
70
0
0
ENDTAB
0
ENDSEC
0
SECTION
2
BLOCKS
0
ENDSEC
0
SECTION
2
ENTITIES
0
LWPOLYLINE
8
0
70
1
90
49
10
15.396341
20
0.01544267
10
15.319128
20
0.01544267
10
14.91762
20
0.12354136
10
14.160928
20
0.37062407
10
13.234367
20
0.74124813
10
11.998954
20
1.3589549
10
11.381248
20
1.729579
10
10.9488525
20
2.0229897
10
11.674658
20
2.192859
10
12.1997086
20
1.914891
10
12.616661
20
1.729579
10
13.296138
20
1.4824963
10
13.512335
20
1.4207256
10
13.558664
20
1.4361683
10
13.327023
20
1.868563
10
13.095384
20
2.4244991
10
12.925514
20
2.9804352
10
12.832858
20
3.4900433
10
12.832858
20
4.154078
10
12.894629
20
4.4474888
10
13.033614
20
4.864441
10
13.079941
20
5.1115234
10
13.095384
20
5.3431637
10
13.064499
20
5.5748035
10
12.971843
20
5.791001
10
12.879187
20
5.883657
10
12.477677
20
5.8064438
10
11.968069
20
5.791001
10
12.060725
20
6.1307396
10
12.3695786
20
6.1461823
10
12.662989
20
6.2079533
10
12.879187
20
6.2851665
10
13.064499
20
6.3778225
10
13.280696
20
6.547692
10
13.311581
20
6.5322495
10
13.41968
20
6.2542812
10
13.512335
20
5.744673
10
13.496893
20
5.1115234
10
13.435123
20
4.725457
10
13.327023
20
4.308505
10
13.296138
20
3.9533234
10
13.327023
20
3.5826992
10
13.41968
20
3.1657473
10
13.54322
20
2.7951231
10
13.743976
20
2.3472858
10
14.160928
20
1.6060375
10
14.70142
20
0.8339042
10
14.994832
20
0.4632801
10
15.396341
20
0.01544267
0
LINE
8
0
10
13.2487280117
20
2.60489964622
11
13.2487280117
21
2.80489964622
0
ENDSEC
0
EOF
