0
SECTION
2
HEADER
9
$ACADVER
1
AC1006
9
$INSBASE
10
0.0
20
0.0
30
0.0
9
$EXTMIN
10
0.0
20
0.0
9
$EXTMAX
10
0.0
20
0.0
0
ENDSEC
0
SECTION
2
TABLES
0
TABLE
2
LTYPE
70
1
0
LTYPE
2
CONTINUOUS
70
64
3
Solid line
72
65
73
0
40
0.0
0
ENDTAB
0
TABLE
2
LAYER
70
1
0
LAYER
2
PYDXF
70
64
62
7
6
continuous
0
ENDTAB
0
TABLE
2
STYLE
70
1
0
STYLE
2
STANDARD
70
0
40
0
41
40
50
50
71
0
42
1
3
ARIAL.TTF
4

0
ENDTAB
0
TABLE
2
VIEW
70
0
0
ENDTAB
0
ENDSEC
0
SECTION
2
BLOCKS
0
ENDSEC
0
SECTION
2
ENTITIES
0
LWPOLYLINE
8
0
70
1
90
32
10
0.027987927
20
0.027987927
10
0.75567403
20
0.83963785
10
1.8192152
20
2.2390343
10
2.7148289
20
3.6664185
10
3.386539
20
5.065815
10
3.722394
20
6.1853317
10
3.834346
20
7.0809456
10
3.7783703
20
7.808632
10
3.5544666
20
8.788209
10
4.3381287
20
8.788209
10
4.645996
20
7.69668
10
4.701972
20
6.717103
10
4.618008
20
5.9334404
10
4.3661167
20
4.8978874
10
3.946298
20
3.7503822
10
3.3585514
20
2.6028772
10
3.386539
20
2.5748894
10
3.834346
20
2.686841
10
5.065815
20
3.1346478
10
6.773078
20
3.946298
10
7.7806435
20
4.5340443
10
9.236016
20
5.5695976
10
9.8237625
20
5.009839
10
9.0121124
20
4.3381287
10
8.060523
20
3.6384304
10
6.717103
20
2.7708048
10
5.5695976
20
2.1270824
10
4.0022736
20
1.3714085
10
2.7148289
20
0.83963785
10
1.175493
20
0.3078672
10
0.16792756
20
0.027987927
10
0.027987927
20
0.027987927
0
LINE
8
0
10
4.40119004067
20
3.55786284205
11
4.40119004067
21
3.75786284205
0
ENDSEC
0
EOF
