0
SECTION
2
HEADER
9
$ACADVER
1
AC1006
9
$INSBASE
10
0.0
20
0.0
30
0.0
9
$EXTMIN
10
0.0
20
0.0
9
$EXTMAX
10
0.0
20
0.0
0
ENDSEC
0
SECTION
2
TABLES
0
TABLE
2
LTYPE
70
1
0
LTYPE
2
CONTINUOUS
70
64
3
Solid line
72
65
73
0
40
0.0
0
ENDTAB
0
TABLE
2
LAYER
70
1
0
LAYER
2
PYDXF
70
64
62
7
6
continuous
0
ENDTAB
0
TABLE
2
STYLE
70
1
0
STYLE
2
STANDARD
70
0
40
0
41
40
50
50
71
0
42
1
3
ARIAL.TTF
4

0
ENDTAB
0
TABLE
2
VIEW
70
0
0
ENDTAB
0
ENDSEC
0
SECTION
2
BLOCKS
0
ENDSEC
0
SECTION
2
ENTITIES
0
LWPOLYLINE
8
0
70
1
90
34
10
10.27784
20
9.307037
10
10.235631
20
9.6024994
10
10.0879005
20
10.109005
10
9.919065
20
10.4677795
10
9.7924385
20
10.657719
10
9.7924385
20
11.438582
10
9.897961
20
12.451592
10
9.834647
20
12.493801
10
9.138203
20
12.6626366
10
8.336236
20
12.958098
10
8.8005325
20
13.485707
10
9.6024994
20
13.084724
10
9.961274
20
12.979202
10
10.003483
20
13.021411
10
10.214526
20
14.139944
10
10.5099884
20
15.27958
10
10.826554
20
14.11884
10
11.058702
20
12.979202
10
11.565208
20
13.126933
10
12.1350266
20
13.40129
10
12.683741
20
13.781169
10
12.936993
20
14.013318
10
13.844482
20
13.696751
10
13.232455
20
13.211351
10
12.7892624
20
12.979202
10
11.923982
20
12.6626366
10
11.14312
20
12.451592
10
11.248642
20
11.3752686
10
11.248642
20
10.657719
10
11.164224
20
10.552197
10
10.974285
20
10.1723175
10
10.868763
20
9.876856
10
10.784345
20
9.496977
10
10.27784
20
9.307037
0
LINE
8
0
10
10.7824546628
20
12.3060443575
11
10.7824546628
21
12.5060443575
0
ENDSEC
0
EOF
