0
SECTION
2
HEADER
9
$ACADVER
1
AC1006
9
$INSBASE
10
0.0
20
0.0
30
0.0
9
$EXTMIN
10
0.0
20
0.0
9
$EXTMAX
10
0.0
20
0.0
0
ENDSEC
0
SECTION
2
TABLES
0
TABLE
2
LTYPE
70
1
0
LTYPE
2
CONTINUOUS
70
64
3
Solid line
72
65
73
0
40
0.0
0
ENDTAB
0
TABLE
2
LAYER
70
1
0
LAYER
2
PYDXF
70
64
62
7
6
continuous
0
ENDTAB
0
TABLE
2
STYLE
70
1
0
STYLE
2
STANDARD
70
0
40
0
41
40
50
50
71
0
42
1
3
ARIAL.TTF
4

0
ENDTAB
0
TABLE
2
VIEW
70
0
0
ENDTAB
0
ENDSEC
0
SECTION
2
BLOCKS
0
ENDSEC
0
SECTION
2
ENTITIES
0
LWPOLYLINE
8
0
70
1
90
46
10
25.54559
20
12.6546844
10
24.938165
20
12.722176
10
23.858298
20
12.958397
10
23.014653
20
13.26211
10
22.171007
20
13.700806
10
21.49609
20
14.173247
10
20.85492
20
14.746925
10
20.348732
20
15.320604
10
19.775053
20
16.16425
10
20.686191
20
15.691809
10
21.597328
20
15.320604
10
22.575957
20
15.016893
10
23.824553
20
14.814418
10
25.039403
20
14.814418
10
25.95054
20
14.9494
10
27.367865
20
15.388097
10
28.818936
20
16.063013
10
28.886426
20
16.130504
10
28.177765
20
16.670438
10
27.300372
20
17.547829
10
26.726694
20
18.323984
10
26.220505
20
19.336359
10
25.95054
20
20.483716
10
27.33412
20
19.977528
10
27.840305
20
18.863916
10
28.54897
20
17.885287
10
29.527597
20
16.97415
10
30.7087
20
16.197997
10
29.527597
20
15.455588
10
28.21151
20
14.814418
10
26.962915
20
14.375722
10
25.883047
20
14.1395
10
25.343115
20
14.07201
10
23.959535
20
14.07201
10
23.487094
20
14.1395
10
22.440974
20
14.409468
10
21.698566
20
14.746925
10
21.66482
20
14.71318
10
22.2385
20
14.30823
10
22.778432
20
14.038263
10
23.52084
20
13.768297
10
24.870673
20
13.464584
10
25.410606
20
13.397093
10
26.220505
20
13.397093
10
26.01803
20
12.6546844
10
25.54559
20
12.6546844
0
LINE
8
0
10
25.9542929002
20
15.7947485078
11
25.9542929002
21
15.9947485078
0
ENDSEC
0
EOF
