0
SECTION
2
HEADER
9
$ACADVER
1
AC1006
9
$INSBASE
10
0.0
20
0.0
30
0.0
9
$EXTMIN
10
0.0
20
0.0
9
$EXTMAX
10
0.0
20
0.0
0
ENDSEC
0
SECTION
2
TABLES
0
TABLE
2
LTYPE
70
1
0
LTYPE
2
CONTINUOUS
70
64
3
Solid line
72
65
73
0
40
0.0
0
ENDTAB
0
TABLE
2
LAYER
70
1
0
LAYER
2
PYDXF
70
64
62
7
6
continuous
0
ENDTAB
0
TABLE
2
STYLE
70
1
0
STYLE
2
STANDARD
70
0
40
0
41
40
50
50
71
0
42
1
3
ARIAL.TTF
4

0
ENDTAB
0
TABLE
2
VIEW
70
0
0
ENDTAB
0
ENDSEC
0
SECTION
2
BLOCKS
0
ENDSEC
0
SECTION
2
ENTITIES
0
LWPOLYLINE
8
0
70
1
90
74
10
38.294617
20
7.362383
10
35.942746
20
6.902234
10
33.795383
20
8.5383194
10
32.210425
20
9.918766
10
29.70517
20
12.475149
10
27.96683
20
14.622511
10
26.330746
20
17.076639
10
26.279617
20
16.821
10
26.381873
20
14.87815
10
26.688638
20
11.605979
10
26.944278
20
9.969894
10
27.3533
20
8.129298
10
27.9157
20
6.442085
10
28.017957
20
6.33983
10
28.42698
20
6.493213
10
28.887128
20
6.442085
10
29.449533
20
5.9819363
10
29.654044
20
5.419532
10
29.50066
20
4.9082554
10
29.040512
20
4.5503616
10
28.529236
20
4.499234
10
28.017957
20
4.7548725
10
27.660065
20
5.2150215
10
27.199915
20
6.2887024
10
26.739767
20
7.924787
10
26.381873
20
9.612
10
25.76834
20
14.111234
10
25.512703
20
18.559341
10
25.257065
20
14.111234
10
24.643532
20
9.612
10
24.285638
20
7.924787
10
23.82549
20
6.2887024
10
23.365341
20
5.2150215
10
23.007448
20
4.7548725
10
22.49617
20
4.499234
10
21.984894
20
4.5503616
10
21.524745
20
4.9082554
10
21.371362
20
5.419532
10
21.575873
20
5.9819363
10
22.138277
20
6.442085
10
22.598425
20
6.493213
10
23.007448
20
6.33983
10
23.109703
20
6.442085
10
23.672107
20
8.129298
10
24.132256
20
10.225532
10
24.336766
20
11.605979
10
24.643532
20
14.87815
10
24.745787
20
16.872128
10
24.69466
20
17.076639
10
23.672107
20
15.491681
10
22.189404
20
13.497702
10
20.808958
20
11.912745
10
18.099191
20
9.3052345
10
17.076639
20
10.327787
10
18.405957
20
11.4525955
10
20.29768
20
13.344319
10
22.240532
20
15.696191
10
23.416469
20
17.383405
10
24.387894
20
19.070618
10
24.848042
20
20.706702
10
24.89917
20
22.29166
10
26.126233
20
22.751808
10
26.023978
20
22.036021
10
26.075107
20
21.013469
10
26.279617
20
19.939787
10
26.484128
20
19.326256
10
27.608936
20
17.383405
10
29.29615
20
15.031532
10
30.727725
20
13.344319
10
33.488617
20
10.685681
10
35.43147
20
9.2029785
10
36.811914
20
8.282681
10
38.345746
20
7.413511
10
38.294617
20
7.362383
0
LINE
8
0
10
26.5972333985
20
12.6086362449
11
26.5972333985
21
12.9086362449
0
TEXT
8
0
10
26.6972333985
20
12.6086362449
40
0.2
1
O6
0
CIRCLE
8
0
10
26.5972333985
20
12.9086362449
40
0.05
0
ENDSEC
0
EOF
