0
SECTION
2
HEADER
9
$ACADVER
1
AC1006
9
$INSBASE
10
0.0
20
0.0
30
0.0
9
$EXTMIN
10
0.0
20
0.0
9
$EXTMAX
10
0.0
20
0.0
0
ENDSEC
0
SECTION
2
TABLES
0
TABLE
2
LTYPE
70
1
0
LTYPE
2
CONTINUOUS
70
64
3
Solid line
72
65
73
0
40
0.0
0
ENDTAB
0
TABLE
2
LAYER
70
1
0
LAYER
2
PYDXF
70
64
62
7
6
continuous
0
ENDTAB
0
TABLE
2
STYLE
70
1
0
STYLE
2
STANDARD
70
0
40
0
41
40
50
50
71
0
42
1
3
ARIAL.TTF
4

0
ENDTAB
0
TABLE
2
VIEW
70
0
0
ENDTAB
0
ENDSEC
0
SECTION
2
BLOCKS
0
ENDSEC
0
SECTION
2
ENTITIES
0
LWPOLYLINE
8
0
70
1
90
27
10
11.801709
20
20.554643
10
9.7855835
20
20.948033
10
7.966154
20
21.587292
10
6.0483757
20
22.521594
10
4.3272934
20
23.603418
10
5.6549854
20
24.439372
10
6.638461
20
25.226154
10
7.769458
20
26.406323
10
8.457891
20
27.389798
10
9.047977
20
28.56997
10
9.441367
20
29.651794
10
10.178974
20
32.700568
10
10.424843
20
33.438174
10
12.145925
20
32.798917
10
11.801709
20
32.06131
10
11.457492
20
30.979486
10
11.113276
20
29.012534
10
10.867407
20
28.17658
10
10.277322
20
26.947235
10
9.293846
20
25.570369
10
8.0153275
20
24.29185
10
6.9826775
20
23.50507
10
8.507065
20
22.718289
10
9.5888885
20
22.275726
10
11.260797
20
21.783987
10
12.195099
20
21.636467
10
11.801709
20
20.554643
0
LINE
8
0
10
9.01448277764
20
26.2203079459
11
9.01448277764
21
26.5203079459
0
TEXT
8
0
10
9.11448277764
20
26.2203079459
40
0.2
1
O7
0
CIRCLE
8
0
10
9.01448277764
20
26.5203079459
40
0.05
0
ENDSEC
0
EOF
